# xmcd
#
# Track frame offsets:
#	150
#	28942
#	49402
#	54547
#	69067
#	99142
#	121105
#	142517
#	166072
#	188975
#
# Disc length: 2821
#
# Revision: 1
# Processed by: cddbd v1.5.1PL0 Copyright (c) Steve Scherf et al.
# Submitted via: ExactAudioCopy v0.95a3
# Normalized: r0:TRMNUM
#
DISCID=770b030a
DTITLE=Eleventh Dream Day - Stalled Parade
DYEAR=2000
DGENRE=Rock
TTITLE0=Stalled Parade
TTITLE1=Ice Storm
TTITLE2=On Ramp
TTITLE3=Interstate
TTITLE4=Valrico 74
TTITLE5=In the Style of
TTITLE6=Ground Point Zero
TTITLE7=Bite the Hand
TTITLE8=Way Too Early on a Sunday Morning
TTITLE9=R.V.S - bonus track
EXTD=
EXTT0=
EXTT1=
EXTT2=
EXTT3=
EXTT4=
EXTT5=
EXTT6=
EXTT7=
EXTT8=
EXTT9=
PLAYORDER=
